<?xml version="1.0" encoding="UTF-8" standalone="no"?>
<svg
   xmlns:dc="http://purl.org/dc/elements/1.1/"
   xmlns:cc="http://creativecommons.org/ns#"
   xmlns:rdf="http://www.w3.org/1999/02/22-rdf-syntax-ns#"
   xmlns:svg="http://www.w3.org/2000/svg"
   xmlns="http://www.w3.org/2000/svg"
   xmlns:sodipodi="http://sodipodi.sourceforge.net/DTD/sodipodi-0.dtd"
   xmlns:inkscape="http://www.inkscape.org/namespaces/inkscape"
   version="1.0"
   width="300"
   height="300"
   viewBox="0 0 225 224.4898"
   id="svg853"
   sodipodi:docname="icon.svg"
   inkscape:version="1.0.2 (e86c8708, 2021-01-15)">
  <metadata
     id="metadata859">
    <rdf:RDF>
      <cc:Work
         rdf:about="">
        <dc:format>image/svg+xml</dc:format>
        <dc:type
           rdf:resource="http://purl.org/dc/dcmitype/StillImage" />
        <dc:title></dc:title>
      </cc:Work>
    </rdf:RDF>
  </metadata>
  <defs
     id="defs857" />
  <sodipodi:namedview
     pagecolor="#ffffff"
     bordercolor="#666666"
     borderopacity="1"
     objecttolerance="10"
     gridtolerance="10"
     guidetolerance="10"
     inkscape:pageopacity="0"
     inkscape:pageshadow="2"
     inkscape:window-width="1365"
     inkscape:window-height="847"
     id="namedview855"
     showgrid="false"
     inkscape:zoom="0.62932504"
     inkscape:cx="200"
     inkscape:cy="147"
     inkscape:window-x="0"
     inkscape:window-y="25"
     inkscape:window-maximized="0"
     inkscape:current-layer="svg853" />
  <g
     id="g864"
     transform="matrix(1.3561264,0,0,1.3561264,-101.536,55.99928)">
    <path
       d="M 137.4,0.65040899 C 135.1,1.150409 131.8,2.250409 130.1,3.150409 c -2.5,1.3 -3,2 -2.5,3.8 1,3.4 5.1,8.8 8.1,10.8 l 2.8,1.8 -2.5,0.9 c -1.3,0.6 -4.6,1.8 -7.2,2.7 -4.7,1.7 -11.1,6.9 -13.2,10.9 -1,1.8 -1.2,1.8 -3.7,0.2 -1.9,-1.2 -3.2,-1.4 -5,-0.7 -3.6,1.3 -8.8,8 -8.8,11.2 0,3.8 4.8,7.5 11.4,8.9 5.2,1.1 5.5,1.3 7.9,6.3 2.3,4.7 2.4,5.7 1.4,10.4 -0.9,4.3 -0.8,5.5 0.6,7.7 2.3,3.5 5.8,4.1 15.2,2.8 5.7,-0.8 9.1,-0.9 11.5,-0.2 1.9,0.6 8.1,1.3 13.7,1.7 l 10.2,0.6 0.6,-2.4 c 0.3,-1.4 -0.1,-4.6 -0.9,-7.1 l -1.6,-4.5 6.4,-6.6 6.3,-6.6 8.9,0.6 c 23.8,1.5 33.6,-10.9 24.5,-31.1 -5.8,-12.6 -16.4,-17.5 -31.6,-14.6 -6.4,1.2 -6.7,1.2 -10.3,-1.3 -10.6,-7.4 -24.6,-10.9 -34.9,-8.70000001 z M 161.6,6.950409 c 3.3,1.6 7.7,4.2 9.9,5.9 3.6,2.9 4.1,3 7.3,1.9 5.2,-1.9 13.4,-2.4 18.1,-1.2 5.3,1.5 11.9,7.3 14.3,12.6 2.5,5.4 2.4,7.4 -0.7,9.7 l -2.5,2.1 2.5,2.6 c 3.4,3.5 3.3,5.4 -0.4,8.4 -7.6,6.5 -30.2,5.6 -37.6,-1.4 -1.3,-1.2 -2.7,-1.8 -3.3,-1.4 -1.8,1 0.6,4.4 4.5,6.2 1.9,0.9 3.4,2 3.4,2.3 0,0.8 -10.6,11 -11.4,11 -0.3,0 -2.9,-1.1 -5.8,-2.4 -2.9,-1.4 -6.1,-2.7 -7.2,-3.1 -1.6,-0.5 -1.4,-0.8 1.5,-2.8 6.8,-4.5 8.7,-12.8 4.7,-20.7 -3.4,-6.6 -7.9,-9.3 -14.9,-8.8 -5.5,0.4 -12.9,3.4 -13.7,5.6 -0.6,1.8 2.4,1.4 6.8,-0.8 8.1,-4.1 15.6,-1.6 19.4,6.4 2.3,5 2,9 -1,12.6 -3.1,3.6 -7.2,5.5 -14.3,6.5 -5.6,0.8 -6.6,2.8 -1.5,3.3 6.4,0.6 17.1,3.3 20.2,5.2 3.8,2.3 7.2,7.5 7.2,10.9 0,2.4 -0.1,2.4 -7.6,1.8 -23.7,-2.1 -37.6,-11.6 -42,-28.8 -3.1,-11.9 2,-20.7 14.7,-25.4 4.6,-1.7 7.5,-1.9 20.1,-1.7 10.1,0.2 14.8,-0.1 15.3,-0.8 1.4,-2.3 -1.4,-3.1 -12.6,-3.7 -8.1,-0.4 -12.5,-1.1 -15,-2.4 -3.9,-1.9 -8.9,-7.2 -8.9,-9.3 0,-2.2 6.2,-3.5 15.5,-3.3 7.4,0.2 10.1,0.8 15,3 z m -49.6,31.5 c 0.5,0.9 1.1,4.2 1.2,7.2 0.3,5.3 0.2,5.5 -2.2,5.2 -3.8,-0.5 -9.4,-3.7 -9.7,-5.7 -0.5,-2.1 5.5,-8.5 8,-8.5 0.9,0 2.2,0.8 2.7,1.8 z m 15.6,33.4 c 2.3,1.8 5.1,3.8 6.1,4.4 1.6,0.9 1.2,1.2 -2.8,1.8 -6.6,1 -8.8,-0.4 -8.8,-5.4 0,-2.2 0.3,-4 0.6,-4 0.3,0 2.5,1.5 4.9,3.2 z"
       id="path833" />
    <path
       d="m 135.6,6.750409 c -1.1,1.7 2.2,4.5 8.7,7.4 7.5,3.4 23.8,4.9 23.8,2.3 0,-1.2 -1.8,-1.6 -7.7,-2.1 -8.7,-0.7 -15,-2.6 -20.5,-6.2 -2.3,-1.6 -3.9,-2.1 -4.3,-1.4 z"
       id="path835" />
    <path
       d="m 195.2,25.850409 c -1.1,3 0.2,6.3 2.4,6.3 2.5,0 3.9,-2.7 3.1,-5.8 -0.8,-3.4 -4.3,-3.7 -5.5,-0.5 z"
       id="path837" />
  </g>
</svg>
